<?xml version="1.0" encoding="UTF-8" standalone="no"?>
<!DOCTYPE svg PUBLIC "-//W3C//DTD SVG 1.1//EN" "http://www.w3.org/Graphics/SVG/1.1/DTD/svg11.dtd">
<svg width="100%" height="100%" viewBox="0 0 36 36" version="1.1" xmlns="http://www.w3.org/2000/svg" xmlns:xlink="http://www.w3.org/1999/xlink" xml:space="preserve" xmlns:serif="http://www.serif.com/" style="fill-rule:evenodd;clip-rule:evenodd;stroke-linejoin:round;stroke-miterlimit:2;">
    <g transform="matrix(1,0,0,1,-6,-6)">
        <path d="M39.75,42C35.683,42 31.642,41 27.625,39C23.608,37 20,34.4 16.8,31.2C13.6,28 11,24.392 9,20.375C7,16.358 6,12.317 6,8.25C6,7.617 6.217,7.083 6.65,6.65C7.083,6.217 7.617,6 8.25,6L15.25,6C15.717,6 16.125,6.158 16.475,6.475C16.825,6.792 17.05,7.217 17.15,7.75L18.5,14.05C18.567,14.517 18.558,14.942 18.475,15.325C18.392,15.708 18.217,16.033 17.95,16.3L12.95,21.35C14.817,24.45 16.908,27.15 19.225,29.45C21.542,31.75 24.167,33.7 27.1,35.3L31.85,30.4C32.183,30.033 32.567,29.775 33,29.625C33.433,29.475 33.867,29.45 34.3,29.55L40.25,30.85C40.75,30.95 41.167,31.2 41.5,31.6C41.833,32 42,32.467 42,33L42,39.75C42,40.383 41.783,40.917 41.35,41.35C40.917,41.783 40.383,42 39.75,42ZM11.45,18.6L15.5,14.5L14.35,9L9,9C9,10.3 9.2,11.725 9.6,13.275C10,14.825 10.617,16.6 11.45,18.6ZM29.9,36.75C31.267,37.383 32.75,37.9 34.35,38.3C35.95,38.7 37.5,38.933 39,39L39,33.65L33.85,32.6L29.9,36.75Z" style="fill:rgb(162,0,255);fill-rule:nonzero;"/>
    </g>
</svg>
