<?xml version="1.0" encoding="UTF-8" standalone="no"?>
<!DOCTYPE svg PUBLIC "-//W3C//DTD SVG 1.1//EN" "http://www.w3.org/Graphics/SVG/1.1/DTD/svg11.dtd">
<svg width="100%" height="100%" viewBox="0 0 282 422" version="1.1" xmlns="http://www.w3.org/2000/svg" xmlns:xlink="http://www.w3.org/1999/xlink" xml:space="preserve" xmlns:serif="http://www.serif.com/" style="fill-rule:evenodd;clip-rule:evenodd;stroke-linecap:round;stroke-linejoin:round;stroke-miterlimit:1.5;">
    <g transform="matrix(1,0,0,1,-264.997,-46.4478)">
        <g>
            <g transform="matrix(1,0,0,1,-3.40437,62.3)">
                <path d="M391.326,145.584L390.608,147.545L419.545,206.696L512.315,275.634L504.942,286.504L516.57,287.55C526.287,280.566 533.56,269.734 541.406,256.197C545.444,256.982 549.018,256.662 549.337,261.166C533.684,293.568 526.871,337.569 512.541,336.082C501.416,331.006 504.447,319.463 492.314,307.125L475.718,333.934L383.799,247.123L345.5,368.829L325.074,367.127C323.268,369.068 325.022,375.936 328.053,384.574L365.075,395.639C367.233,398.167 365.71,401.128 361.546,404.399C335.055,405.721 310.44,402.071 284.647,399.894C272.114,396.858 282.975,382.709 299.541,365.85L268.902,362.446L325.894,234.465L304.324,99.162C304.12,88.371 311.719,83.154 326.766,83.257L325.894,69.53C280.861,49.381 279.926,21.628 319.14,-13.046C332.337,-17.742 346.251,-15.979 361.627,-1.063L378.621,4.82L373.174,11.574L378.186,18.764C360.051,45.469 366.389,43.707 383.851,29.005C401.882,38.931 388.515,51.612 365.113,65.173L369.035,82.821C381.573,81.785 393.66,81.648 404.113,84.782L404.109,84.955C513.509,43.734 540.036,89.324 532.887,100.009C529.761,104.681 524.078,86.049 516.024,85.055C525.497,104.82 528.581,115.851 523.684,115.373C515.45,118.606 513.431,83.544 496.965,87.687C487.951,88.721 496.355,98.711 505.64,109.153C503.413,118.04 490.34,105.943 475.069,89.593L407.699,115.673C522.096,117.481 530.172,168.844 519.727,176.171C515.124,179.399 516.552,159.972 509.4,156.138C511.098,177.989 509.992,189.39 505.598,187.177C496.752,187.218 507.527,153.792 490.676,151.712C481.896,149.422 486.127,161.772 491.016,174.862C485.731,182.345 477.907,166.345 469.568,145.584L391.326,145.584Z" style="fill:rgb(0,166,255);stroke:black;stroke-width:1px;"/>
            </g>
            <path d="M343.399,60.383C346.61,62.51 346.227,68.751 342.545,74.313C338.862,79.874 333.265,82.663 330.053,80.536C326.842,78.41 327.224,72.168 330.907,66.607C334.59,61.045 340.187,58.257 343.399,60.383Z" style="fill:white;stroke:black;stroke-width:0.76px;"/>
        </g>
    </g>
</svg>
