<?xml version="1.0" encoding="UTF-8" standalone="no"?>
<!DOCTYPE svg PUBLIC "-//W3C//DTD SVG 1.1//EN" "http://www.w3.org/Graphics/SVG/1.1/DTD/svg11.dtd">
<svg width="100%" height="100%" viewBox="0 0 474 351" version="1.1" xmlns="http://www.w3.org/2000/svg" xmlns:xlink="http://www.w3.org/1999/xlink" xml:space="preserve" xmlns:serif="http://www.serif.com/" style="fill-rule:evenodd;clip-rule:evenodd;stroke-linecap:round;stroke-linejoin:round;stroke-miterlimit:1.5;">
    <g transform="matrix(1,0,0,1,-201.907,-189.617)">
        <g transform="matrix(0.765148,0.643855,-0.822867,0.977883,316.576,-236.999)">
            <path d="M374.716,208.639L374.716,250.85C374.716,263.027 387.35,272.912 402.912,272.912C418.473,272.912 431.107,263.027 431.107,250.85L431.107,211.09L431.107,250.85C431.107,263.027 443.742,272.912 459.303,272.912C474.865,272.912 487.499,263.027 487.499,250.85L487.499,207.588C487.823,209.233 487.98,210.931 487.981,212.665L487.982,212.665C487.983,210.975 488.132,209.319 488.445,207.711L488.445,250.41C488.445,262.587 501.079,272.472 516.641,272.472C532.203,272.472 544.837,262.587 544.837,250.41L544.837,204.308L544.775,203.355L544.775,141.2C544.775,125.527 557.499,112.803 573.172,112.803C588.844,112.803 601.569,125.527 601.569,141.2L601.569,378.079C596.536,408.07 560.395,417.215 544.723,417.215L422.248,417.215C409.671,417.215 397.487,413.786 387.791,407.519C366.587,393.812 328.197,368.997 308.111,356.013C299.676,350.56 289.077,347.578 278.137,347.578L237.643,347.578C228.865,347.578 221.749,342.01 221.749,335.141L221.749,327.944C221.749,320.384 227.108,313.447 235.665,309.935C258.388,300.592 291.631,297.55 321.597,299.943L374.394,317.484L374.394,212.683C374.394,211.308 374.492,209.957 374.716,208.639Z" style="fill:rgb(0,216,255);stroke:black;stroke-width:8.42px;"/>
        </g>
        <g transform="matrix(1,0,0,1,2.49335,-20.8617)">
            <path d="M516.896,301.468C504.73,315.959 466.823,349.409 479.119,375.021C479.929,376.708 498.829,401.986 522.076,381.917C522.198,381.812 557.032,340.703 557.333,340.903L557.291,340.871C568.793,325.818 569.091,306.421 557.685,296.665L557.545,296.546C546.852,287.547 529.626,289.953 516.896,301.468Z" style="fill:rgb(0,216,255);stroke:black;stroke-width:9.66px;"/>
        </g>
        <g transform="matrix(1,0,0,1,2.49335,-20.8617)">
            <path d="M433.618,312.16L475.463,261.653C485.482,249.746 503.284,248.214 515.191,258.233C527.098,268.253 528.63,286.054 518.611,297.961L481.045,344.512C474.127,352.434 422.208,363.435 433.618,312.16Z" style="fill:rgb(0,216,255);stroke:black;stroke-width:9.66px;"/>
        </g>
        <g transform="matrix(1,0,0,1,2.49335,-20.8617)">
            <path d="M392.161,273.373L432.315,225.345C442.334,213.438 460.136,211.906 472.043,221.925C483.95,231.945 485.482,249.746 475.463,261.653L432.315,311.629C420.761,325.001 372.599,311.681 392.161,273.373Z" style="fill:rgb(0,216,255);stroke:black;stroke-width:9.66px;"/>
        </g>
    </g>
</svg>
