<?xml version="1.0" encoding="UTF-8" standalone="no"?>
<!DOCTYPE svg PUBLIC "-//W3C//DTD SVG 1.1//EN" "http://www.w3.org/Graphics/SVG/1.1/DTD/svg11.dtd">
<svg width="100%" height="100%" viewBox="0 0 620 624" version="1.1" xmlns="http://www.w3.org/2000/svg" xmlns:xlink="http://www.w3.org/1999/xlink" xml:space="preserve" xmlns:serif="http://www.serif.com/" style="fill-rule:evenodd;clip-rule:evenodd;stroke-linecap:round;stroke-linejoin:round;stroke-miterlimit:1.5;">
    <g transform="matrix(1,0,0,1,-197.085,-193.892)">
        <path d="M562.346,620.832C527.304,644.186 485.233,657.801 440.009,657.801C318.043,657.801 219.023,558.78 219.023,436.815C219.023,314.849 318.043,215.829 440.009,215.829C561.974,215.829 660.995,314.849 660.995,436.815C660.995,485.199 645.412,529.971 618.987,566.395C625.339,568.463 631.32,571.997 636.399,577.002L781.22,719.705C798.715,736.944 798.923,765.144 781.684,782.639C764.444,800.135 736.244,800.342 718.749,783.103L573.928,640.4C568.234,634.788 564.37,628.016 562.346,620.832Z" style="stroke:black;stroke-width:43.87px;"/>
        <g transform="matrix(1.65667,0,0,1.65667,-308.624,-273.278)">
            <circle cx="449.389" cy="426.126" r="130.89" style="fill:white;stroke:black;stroke-width:26.48px;"/>
        </g>
        <path d="M418.848,298.726C418.848,298.726 537.522,281.274 570.681,413.037" style="fill:none;stroke:black;stroke-width:27.75px;"/>
    </g>
</svg>
