<?xml version="1.0" encoding="UTF-8" standalone="no"?>
<!DOCTYPE svg PUBLIC "-//W3C//DTD SVG 1.1//EN" "http://www.w3.org/Graphics/SVG/1.1/DTD/svg11.dtd">
<svg width="100%" height="100%" viewBox="0 0 392 470" version="1.1" xmlns="http://www.w3.org/2000/svg" xmlns:xlink="http://www.w3.org/1999/xlink" xml:space="preserve" xmlns:serif="http://www.serif.com/" style="fill-rule:evenodd;clip-rule:evenodd;stroke-linejoin:round;stroke-miterlimit:2;">
    <g transform="matrix(1,0,0,1,-280.562,-24.9833)">
        <g>
            <g>
                <path d="M280.58,172.493C280.111,149.077 288.839,124.721 313.01,98.789C306.429,75.374 298.524,54.342 288.312,37.465C306.444,40.228 324.922,53.029 343.78,76.854L330.298,24.983C349.69,37.285 365.919,52.75 379.501,70.863C645.85,82.667 734.698,330.511 628.845,494.415C629.222,447.41 619.165,401.565 587.62,358.107C581.773,402.371 559.075,432.974 515.809,447.87C519.653,434.227 520.683,420.35 515.809,405.981C501.576,455 471.189,482.818 417.738,481.725C427.337,467.492 430.297,452.368 431.181,439.587C399.412,471.05 364.901,503.613 299.407,469.091C368.199,405.773 399.217,337.325 405.293,265.492C399.114,266.482 392.742,267 386.234,267C360.496,267 336.895,258.903 318.559,245.455L318.559,245.455L318.558,245.455C316.158,243.694 313.847,241.842 311.634,239.904L308.611,237.48C308.679,237.433 308.747,237.386 308.815,237.339C291.286,220.773 280.562,198.583 280.562,174.212C280.562,173.638 280.568,173.066 280.58,172.493Z" style="fill:rgb(0,166,255);"/>
            </g>
            <g transform="matrix(0.97596,-0.217948,0.217948,0.97596,-38.348,79.1831)">
                <ellipse cx="326.001" cy="161.254" rx="17.39" ry="6.17" style="fill:rgb(0,166,255);"/>
            </g>
        </g>
    </g>
</svg>
